<svg xmlns="http://www.w3.org/2000/svg" version="1.1" xmlns:xlink="http://www.w3.org/1999/xlink" xmlns:svgjs="http://svgjs.dev/svgjs" width="2000" height="297" viewBox="0 0 2000 297"><g transform="matrix(1,0,0,1,-1.2121212121212466,-1.5947156852684259)"><svg viewBox="0 0 396 59" data-background-color="#ffffff" preserveAspectRatio="xMidYMid meet" height="297" width="2000" xmlns="http://www.w3.org/2000/svg" xmlns:xlink="http://www.w3.org/1999/xlink"><g id="tight-bounds" transform="matrix(1,0,0,1,0.2400000000000091,0.3167953718210015)"><svg viewBox="0 0 395.52 58.366409256357976" height="58.366409256357976" width="395.52"><g><svg viewBox="0 0 476.1235136040681 70.26097252121299" height="58.366409256357976" width="395.52"><g><rect width="3.5495852493684588" height="67.89642056136447" x="67.76182037205967" y="1.1822759799242633" fill="#0452e6" opacity="1" stroke-width="0" stroke="transparent" fill-opacity="1" class="rect-yte-0" data-fill-palette-color="primary" rx="1%" id="yte-0" data-palette-color="#0452e6"></rect></g><g transform="matrix(1,0,0,1,80.60351360406808,1.3511725484848682)"><svg viewBox="0 0 395.52 67.55862742424326" height="67.55862742424326" width="395.52"><g id="textblocktransform"><svg viewBox="0 0 395.52 67.55862742424326" height="67.55862742424326" width="395.52" id="textblock"><g><svg viewBox="0 0 395.52 39.360663441603315" height="39.360663441603315" width="395.52"><g transform="matrix(1,0,0,1,0,0)"><svg width="395.52" viewBox="1.2 -40.5 506.41 50.4" height="39.360663441603315" data-palette-color="#0452e6"><g class="wordmark-text-0" data-fill-palette-color="primary" id="text-0"><path d="M1.2-18.7L1.2-18.7Q1.2-23.85 2.08-27.58 2.95-31.3 5.03-33.7 7.1-36.1 10.5-37.25 13.9-38.4 18.9-38.4L18.9-38.4Q23.95-38.4 27.33-37.25 30.7-36.1 32.77-33.7 34.85-31.3 35.73-27.58 36.6-23.85 36.6-18.7L36.6-18.7Q36.6-13.8 35.8-10.13 35-6.45 32.98-4 30.95-1.55 27.53-0.33 24.1 0.9 18.9 0.9L18.9 0.9Q13.7 0.9 10.28-0.33 6.85-1.55 4.83-4 2.8-6.45 2-10.13 1.2-13.8 1.2-18.7ZM14.1-24.95L14.1-24.95 14.1-9.35 19.1-9.35Q21.6-9.35 22.68-9.93 23.75-10.5 23.75-12.55L23.75-12.55 23.75-28.15 18.7-28.15Q16.3-28.15 15.2-27.58 14.1-27 14.1-24.95ZM40.8 0L40.8-30 46.8-30 49.8-27Q55.35-30.9 61.8-30.9L61.8-30.9Q66.05-30.9 68.42-29.08 70.8-27.25 70.8-24L70.8-24 70.8 0 58.8 0 58.8-21 56.95-21Q54.9-21 53.85-20.58 52.8-20.15 52.8-18.7L52.8-18.7 52.8 0 40.8 0ZM88.2-10.2L88.2-10.2 88.2-8.1Q89.09-8 90-7.95 90.9-7.9 91.8-7.9L91.8-7.9Q97.4-7.9 103.09-9.7L103.09-9.7 104.5-0.9Q97.75 0.9 91.2 0.9L91.2 0.9Q82.8 0.9 79.05-3.03 75.3-6.95 75.3-15L75.3-15Q75.3-23.05 79.07-26.98 82.84-30.9 91.2-30.9L91.2-30.9Q95.4-30.9 98.2-30.38 101-29.85 102.72-28.63 104.45-27.4 105.17-25.33 105.9-23.25 105.9-20.1L105.9-20.1Q105.9-17.5 105.02-15.63 104.15-13.75 102.09-12.55 100.05-11.35 96.65-10.78 93.25-10.2 88.2-10.2ZM88.2-19.6L88.2-19.6 88.2-17.15 90.65-17.15Q92.84-17.15 93.82-17.6 94.8-18.05 94.8-19.7L94.8-19.7 94.8-22.15 92.34-22.15Q90.15-22.15 89.17-21.7 88.2-21.25 88.2-19.6ZM108.89-0.65L108.89-0.65 110.59-10.55Q116.09-9.2 120.54-9.2L120.54-9.2Q122.79-9.2 124.52-9.28 126.24-9.35 127.59-9.55L127.59-9.55 127.59-12.55 122.19-13Q118.54-13.35 116.09-14.2 113.64-15.05 112.17-16.53 110.69-18 110.07-20.08 109.44-22.15 109.44-24.95L109.44-24.95Q109.44-28.8 110.24-31.38 111.04-33.95 112.79-35.52 114.54-37.1 117.32-37.75 120.09-38.4 124.09-38.4L124.09-38.4Q132.04-38.4 138.49-36.9L138.49-36.9 136.99-27.3Q131.39-28.2 128.04-28.2L128.04-28.2Q124.69-28.2 122.34-27.9L122.34-27.9 122.34-24.95 126.64-24.55Q130.59-24.15 133.24-23.23 135.89-22.3 137.52-20.8 139.14-19.3 139.82-17.25 140.49-15.2 140.49-12.55L140.49-12.55Q140.49-8.75 139.49-6.15 138.49-3.55 137.09-2.2L137.09-2.2Q135.94-1.1 134.24-0.48 132.54 0.15 130.64 0.45 128.74 0.75 126.82 0.83 124.89 0.9 123.34 0.9L123.34 0.9Q119.44 0.9 115.84 0.5 112.24 0.1 108.89-0.65ZM156.99 9L144.99 9.9 144.99-30 150.99-30 153.19-27Q155.84-30.9 162.99-30.9L162.99-30.9Q166.59-30.9 169.04-29.6 171.49-28.3 173.02-26.13 174.54-23.95 175.22-21.05 175.89-18.15 175.89-15L175.89-15Q175.89-11.95 175.29-9.25 174.69-6.55 173.29-4.48 171.89-2.4 169.59-1.2 167.29 0 163.89 0L163.89 0 156.99 0 156.99 9ZM156.99-19.9L156.99-19.9 156.99-7.85 158.84-7.85Q161.04-7.85 162.02-8.3 162.99-8.75 162.99-10.4L162.99-10.4 162.99-22.15 161.14-22.15Q159.84-22.15 159.04-22.05 158.24-21.95 157.64-21.4L157.64-21.4Q157.04-20.9 156.99-19.9ZM179.49-15L179.49-15Q179.49-23.05 183.24-26.98 186.99-30.9 195.39-30.9L195.39-30.9Q203.79-30.9 207.54-26.98 211.29-23.05 211.29-15L211.29-15Q211.29-6.95 207.54-3.03 203.79 0.9 195.39 0.9L195.39 0.9Q187.19 0.9 183.34-2.95 179.49-6.8 179.49-15ZM192.39-19.6L192.39-19.6 192.39-7.85 194.24-7.85Q196.44-7.85 197.41-8.3 198.39-8.75 198.39-10.4L198.39-10.4 198.39-22.15 196.54-22.15Q194.34-22.15 193.36-21.7 192.39-21.25 192.39-19.6ZM217.28-5.65L217.28-22.25 214.28-22.25 214.28-30 217.28-30 217.28-34.8 229.28-37.8 229.28-30 233.44-30 233.44-22.25 229.28-22.25 229.28-8.6Q230.03-8.45 230.94-8.33 231.84-8.2 232.84-8.15L232.84-8.15 232.29 0.65Q224.09 0.65 221.59-0.25L221.59-0.25Q219.49-1 218.39-2.18 217.28-3.35 217.28-5.65L217.28-5.65ZM261.93-14.15L261.93-22.85 249.93-22.85 249.93-27.9 262.83-27.9 264.33-37.5 237.93-37.5 237.93 0 264.63 0 264.63-9.6 249.93-9.6 249.93-14.15 261.93-14.15ZM287.43-39L299.43-39.9 299.43 0 293.43 0 290.83-2.5Q288.28 0.9 281.43 0.9L281.43 0.9Q277.83 0.9 275.38-0.4 272.93-1.7 271.41-3.88 269.88-6.05 269.21-8.95 268.53-11.85 268.53-15L268.53-15Q268.53-18 269.13-20.73 269.73-23.45 271.13-25.5 272.53-27.55 274.83-28.78 277.13-30 280.53-30L280.53-30 287.43-30 287.43-39ZM281.43-19.6L281.43-19.6 281.43-7.85 283.28-7.85Q285.33-7.85 286.31-8.22 287.28-8.6 287.43-10L287.43-10 287.43-22.15 285.58-22.15Q283.38-22.15 282.41-21.7 281.43-21.25 281.43-19.6ZM304.83-9L304.83-30 316.83-30 316.83-7.85 318.68-7.85Q320.88-7.85 321.85-8.3 322.83-8.75 322.83-10.4L322.83-10.4 322.83-30 334.83-30 334.83 0 328.83 0 325.33-3.4Q321.73 0.9 315.08 0.9L315.08 0.9Q309.73 0.9 307.28-1.38 304.83-3.65 304.83-9L304.83-9ZM362.82-9L362.82-9 363.57-0.35Q360.47 0.9 355.52 0.9L355.52 0.9Q347.13 0.9 343.38-3.03 339.63-6.95 339.63-15L339.63-15Q339.63-23.05 343.38-26.98 347.13-30.9 355.52-30.9L355.52-30.9Q360.88-30.9 363.57-29.65L363.57-29.65 362.13-21.5Q360.52-21.8 359.27-21.98 358.02-22.15 357.07-22.15L357.07-22.15Q352.52-22.15 352.52-18.95L352.52-18.95 352.52-8.2Q353.38-8.05 354.5-7.95 355.63-7.85 357.02-7.85L357.02-7.85Q359.82-7.85 362.82-9ZM382.57-30.9L382.57-30.9Q396.97-30.9 396.97-21L396.97-21 396.97 0 390.97 0 387.57-3.4Q386.67-2.4 385.45-1.6 384.22-0.8 382.82-0.25 381.42 0.3 379.97 0.6 378.52 0.9 377.17 0.9L377.17 0.9Q374.62 0.9 372.6 0.38 370.57-0.15 369.17-1.3 367.77-2.45 367.02-4.35 366.27-6.25 366.27-9L366.27-9Q366.27-19.8 382.57-19.8L382.57-19.8 384.97-19.8 384.97-21.95Q384.02-22 383.25-22.05 382.47-22.1 381.82-22.1L381.82-22.1Q375.07-22.1 370.17-20.45L370.17-20.45 368.72-29.05Q374.72-30.9 382.57-30.9ZM378.37-10.3L378.37-10.3 378.37-7.85 380.87-7.85Q383.47-7.85 384.27-8.45L384.27-8.45Q384.97-9.1 384.97-10L384.97-10 384.97-12.85 382.52-12.85Q380.37-12.85 379.37-12.4 378.37-11.95 378.37-10.3ZM403.57-5.65L403.57-22.25 400.57-22.25 400.57-30 403.57-30 403.57-34.8 415.57-37.8 415.57-30 419.72-30 419.72-22.25 415.57-22.25 415.57-8.6Q416.32-8.45 417.22-8.33 418.12-8.2 419.12-8.15L419.12-8.15 418.57 0.65Q410.37 0.65 407.87-0.25L407.87-0.25Q405.77-1 404.67-2.18 403.57-3.35 403.57-5.65L403.57-5.65ZM436.22-30L436.22 0 424.22 0 424.22-28.5 436.22-30ZM423.57-35.65L423.57-35.65Q423.57-37 423.87-37.93 424.17-38.85 424.92-39.43 425.67-40 426.97-40.25 428.27-40.5 430.27-40.5L430.27-40.5Q432.27-40.5 433.54-40.25 434.82-40 435.57-39.43 436.32-38.85 436.62-37.93 436.92-37 436.92-35.65L436.92-35.65Q436.92-34.3 436.62-33.4 436.32-32.5 435.57-31.93 434.82-31.35 433.54-31.13 432.27-30.9 430.27-30.9L430.27-30.9Q428.82-30.9 427.59-31 426.37-31.1 425.47-31.58 424.57-32.05 424.07-33 423.57-33.95 423.57-35.65ZM441.02-15L441.02-15Q441.02-23.05 444.77-26.98 448.52-30.9 456.92-30.9L456.92-30.9Q465.32-30.9 469.07-26.98 472.82-23.05 472.82-15L472.82-15Q472.82-6.95 469.07-3.03 465.32 0.9 456.92 0.9L456.92 0.9Q448.72 0.9 444.87-2.95 441.02-6.8 441.02-15ZM453.92-19.6L453.92-19.6 453.92-7.85 455.77-7.85Q457.97-7.85 458.94-8.3 459.92-8.75 459.92-10.4L459.92-10.4 459.92-22.15 458.07-22.15Q455.87-22.15 454.89-21.7 453.92-21.25 453.92-19.6ZM477.61 0L477.61-30 483.61-30 486.61-27Q492.16-30.9 498.61-30.9L498.61-30.9Q502.86-30.9 505.24-29.08 507.61-27.25 507.61-24L507.61-24 507.61 0 495.61 0 495.61-21 493.76-21Q491.71-21 490.66-20.58 489.61-20.15 489.61-18.7L489.61-18.7 489.61 0 477.61 0Z" fill="#0452e6" data-fill-palette-color="primary"></path></g></svg></g></svg></g><g transform="matrix(1,0,0,1,0,48.652771424243255)"><svg viewBox="0 0 356.95679999999993 18.905855999999993" height="18.905855999999993" width="356.95679999999993"><g transform="matrix(1,0,0,1,0,0)"><svg width="356.95679999999993" viewBox="2.15 -34 902.39 47.800000000000004" height="18.905855999999993" data-palette-color="#404040"><path d="M10.75 0.6L10.75 0.6Q6.6 0.6 4.8-1.38 3-3.35 3-6.6L3-6.6Q3-7.45 3.15-8.65 3.3-9.85 3.55-11.55L3.55-11.55Q3.95-14 4.15-15.93 4.35-17.85 4.35-20.15L4.35-20.15Q4.35-22.8 4.2-24.45L4.2-24.45Q3.35-23.95 2.95-23.95L2.95-23.95Q2.15-23.95 2.15-25.75L2.15-25.75Q2.15-27.15 2.78-28.13 3.4-29.1 4.85-29.95L4.85-29.95Q6.3-30.85 8.53-31.5 10.75-32.15 13.3-32.15L13.3-32.15Q17.45-32.15 19.6-30.25 21.75-28.35 21.75-25.25L21.75-25.25Q21.75-23.25 20.9-21.55 20.05-19.85 18.5-18.55L18.5-18.55Q24.75-17.55 24.75-11.35L24.75-11.35Q24.75-8 22.85-5.25 20.95-2.5 17.7-0.95L17.7-0.95Q14.55 0.6 10.75 0.6ZM12.75-4.95L12.75-4.95Q15-4.95 16.82-5.58 18.65-6.2 19.75-7.4 20.85-8.6 20.85-10.2L20.85-10.2Q20.85-12.25 19.4-13.1 17.95-13.95 16.05-13.95L16.05-13.95Q15.25-13.95 14.05-13.8L14.05-13.8Q13.55-13.7 12.9-13.7L12.9-13.7Q11.8-13.7 11.08-14.6 10.35-15.5 10.35-16.85L10.35-16.85Q10.35-17.8 11.2-18.05L11.2-18.05Q17.3-19.65 17.3-23.6L17.3-23.6Q17.3-26.75 12.95-26.75L12.95-26.75Q11.35-26.75 9-26.2L9-26.2Q9-23.75 8.75-21.08 8.5-18.4 8-15.5L8-15.5Q7.7-13.5 7.53-12.13 7.35-10.75 7.35-9.9L7.35-9.9Q7.35-7.2 8.7-6.08 10.05-4.95 12.75-4.95ZM31.3 0.55L31.3 0.55Q30.5 0.55 30.02 0.28 29.55 0 29.7-0.65L29.7-0.65Q30.25-2.8 30.62-5.03 31-7.25 31-9.3L31-9.3Q31-11.95 30.67-13.18 30.35-14.4 29.8-14.88 29.25-15.35 28.45-15.6L28.45-15.6Q28.1-15.75 27.82-16 27.55-16.25 27.55-16.7L27.55-16.7Q27.55-17.4 28.1-18.25 28.65-19.1 29.65-19.73 30.65-20.35 31.95-20.35L31.95-20.35Q33.65-20.35 34.32-19.18 35-18 35-16.1L35-16.1Q35.9-18.1 37.22-19.28 38.55-20.45 40.55-20.45L40.55-20.45Q41.9-20.45 42.8-19.85 43.7-19.25 43.7-17.9L43.7-17.9Q43.7-16.55 42.82-15.38 41.95-14.2 41.05-14.2L41.05-14.2Q40.9-14.2 40.7-14.25 40.5-14.3 40.35-14.5L40.35-14.5Q39.7-15.3 38.75-15.3L38.75-15.3Q37.3-15.3 36.2-13.4 35.1-11.5 35-8.15L35-8.15Q35.05-6.9 35.07-5.6 35.1-4.3 35.1-3.7L35.1-3.7Q35.1-1.85 34.07-0.65 33.05 0.55 31.3 0.55ZM49.95-24.85L49.95-24.85Q48.55-24.9 47.7-25.7 46.84-26.5 46.84-27.95L46.84-27.95Q46.89-29.5 47.89-30.48 48.89-31.45 50.45-31.4L50.45-31.4Q51.89-31.35 52.72-30.55 53.55-29.75 53.49-28.3L53.49-28.3Q53.45-26.8 52.49-25.83 51.55-24.85 49.95-24.85ZM49.99 0.5L49.99 0.5Q48.49 0.5 47.64-0.33 46.8-1.15 46.8-3.15L46.8-3.15Q46.8-4.3 47.02-5.4 47.24-6.5 47.55-7.55L47.55-7.55Q47.89-8.65 48.12-9.8 48.34-10.95 48.34-12.25L48.34-12.25Q48.34-13.15 48.09-13.98 47.84-14.8 46.99-15.2L46.99-15.2Q46.34-15.55 45.87-15.93 45.39-16.3 45.39-16.9L45.39-16.9Q45.39-17.6 46.05-18.4 46.7-19.2 47.77-19.78 48.84-20.35 49.99-20.35L49.99-20.35Q51.24-20.35 51.82-19.7 52.39-19.05 52.59-18.05 52.8-17.05 52.8-16L52.8-16Q52.8-14.4 52.55-12.88 52.3-11.35 52.05-10.05L52.05-10.05Q51.84-9.1 51.74-8.3 51.64-7.5 51.64-6.8L51.64-6.8Q51.64-5.55 52.24-4.93 52.84-4.3 53.95-3.75L53.95-3.75Q54.39-3.5 54.39-3L54.39-3Q54.39-2.6 53.99-1.75 53.59-0.9 52.62-0.2 51.64 0.5 49.99 0.5ZM60.94 0.55L60.94 0.55Q59.14 0.55 59.34-0.65L59.34-0.65Q59.89-2.8 60.27-5.03 60.64-7.25 60.64-9.3L60.64-9.3Q60.64-11.95 60.32-13.18 59.99-14.4 59.44-14.88 58.89-15.35 58.09-15.6L58.09-15.6Q57.74-15.75 57.47-16 57.19-16.25 57.19-16.7L57.19-16.7Q57.19-17.4 57.74-18.25 58.29-19.1 59.32-19.73 60.34-20.35 61.64-20.35L61.64-20.35Q63.34-20.35 63.99-19.18 64.64-18 64.64-16.1L64.64-16.1Q64.64-14.85 64.39-13.3 64.14-11.75 63.89-10.5L63.89-10.5 64.04-10.45Q65.04-13.1 66.47-15.38 67.89-17.65 69.79-19.05 71.69-20.45 74.19-20.45L74.19-20.45Q76.84-20.45 78.24-18.85 79.64-17.25 79.64-14.85L79.64-14.85Q79.64-13.85 79.42-12.95 79.19-12.05 78.94-11.2L78.94-11.2Q78.69-10.4 78.52-9.55 78.34-8.7 78.34-7.85L78.34-7.85Q78.34-5 81.04-4L81.04-4Q81.74-3.7 81.74-3.1L81.74-3.1Q81.74-2.65 81.44-1.8 81.14-0.95 80.34-0.23 79.54 0.5 77.99 0.5L77.99 0.5Q75.99 0.5 74.89-0.93 73.79-2.35 73.79-4.55L73.79-4.55Q73.79-5.8 74.07-7.08 74.34-8.35 74.64-9.45L74.64-9.45Q74.84-10.3 75.02-11.13 75.19-11.95 75.19-12.6L75.19-12.6Q75.19-14.9 72.79-14.9L72.79-14.9Q70.74-14.9 69.19-13.38 67.64-11.85 66.54-9.55 65.44-7.25 64.74-4.9L64.74-4.9 64.74-3.7Q64.74-1.85 63.72-0.65 62.69 0.55 60.94 0.55ZM91.44 13.8L91.44 13.8Q87.69 13.8 85.49 12.25 83.29 10.7 83.29 8.25L83.29 8.25Q83.29 6.45 84.42 5.05 85.54 3.65 87.39 3.65L87.39 3.65Q88.44 3.65 88.44 4.25L88.44 4.25Q88.44 4.6 88.32 5.05 88.19 5.5 88.19 5.95L88.19 5.95Q88.19 7.35 89.79 8.03 91.39 8.7 93.64 8.7L93.64 8.7Q95.04 8.7 96.49 8.4 97.94 8.1 98.92 7.48 99.89 6.85 99.89 5.8L99.89 5.8Q99.89 4.65 98.74 4.1 97.59 3.55 95.84 3.28 94.09 3 92.27 2.78 90.44 2.55 89.14 2.05L89.14 2.05Q87.49 1.5 86.69 0.7 85.89-0.1 85.89-1.35L85.89-1.35Q85.89-3.7 88.74-5.1L88.74-5.1Q87.09-5.95 86.27-7.5 85.44-9.05 85.44-10.95L85.44-10.95Q85.44-13.4 86.72-15.55 87.99-17.7 90.52-19.07 93.04-20.45 96.84-20.45L96.84-20.45Q98.54-20.45 100.29-20.13 102.04-19.8 103.22-18.93 104.39-18.05 104.39-16.4L104.39-16.4Q104.39-15.8 104.14-15.08 103.89-14.35 103.19-14.35L103.19-14.35Q102.89-14.35 102.39-14.48 101.89-14.6 101.49-14.7L101.49-14.7Q101.59-14.2 101.67-13.6 101.74-13 101.74-12.35L101.74-12.35Q101.74-9.4 99.74-7.03 97.74-4.65 93.89-4.2L93.89-4.2Q92.49-4.1 91.82-3.88 91.14-3.65 91.14-3.1L91.14-3.1Q91.14-2.6 91.74-2.38 92.34-2.15 93.29-2.05L93.29-2.05Q96.34-1.8 98.69-1.2 101.04-0.6 102.37 0.73 103.69 2.05 103.69 4.5L103.69 4.5Q103.69 7.35 102.02 9.43 100.34 11.5 97.54 12.65 94.74 13.8 91.44 13.8ZM93.34-8.55L93.34-8.55Q95.64-8.55 96.94-9.8 98.24-11.05 98.24-13.05L98.24-13.05Q98.24-13.6 98.14-14.18 98.04-14.75 97.94-15.15L97.94-15.15Q97.14-15.4 96.39-15.48 95.64-15.55 94.94-15.55L94.94-15.55Q92.29-15.55 90.79-14.55 89.29-13.55 89.29-11.8L89.29-11.8Q89.29-10.25 90.39-9.4 91.49-8.55 93.34-8.55ZM111.39-24.85L111.39-24.85Q109.99-24.9 109.14-25.7 108.29-26.5 108.29-27.95L108.29-27.95Q108.34-29.5 109.34-30.48 110.34-31.45 111.89-31.4L111.89-31.4Q113.34-31.35 114.16-30.55 114.99-29.75 114.94-28.3L114.94-28.3Q114.89-26.8 113.94-25.83 112.99-24.85 111.39-24.85ZM111.44 0.5L111.44 0.5Q109.94 0.5 109.09-0.33 108.24-1.15 108.24-3.15L108.24-3.15Q108.24-4.3 108.46-5.4 108.69-6.5 108.99-7.55L108.99-7.55Q109.34-8.65 109.56-9.8 109.79-10.95 109.79-12.25L109.79-12.25Q109.79-13.15 109.54-13.98 109.29-14.8 108.44-15.2L108.44-15.2Q107.79-15.55 107.31-15.93 106.84-16.3 106.84-16.9L106.84-16.9Q106.84-17.6 107.49-18.4 108.14-19.2 109.21-19.78 110.29-20.35 111.44-20.35L111.44-20.35Q112.69-20.35 113.26-19.7 113.84-19.05 114.04-18.05 114.24-17.05 114.24-16L114.24-16Q114.24-14.4 113.99-12.88 113.74-11.35 113.49-10.05L113.49-10.05Q113.29-9.1 113.19-8.3 113.09-7.5 113.09-6.8L113.09-6.8Q113.09-5.55 113.69-4.93 114.29-4.3 115.39-3.75L115.39-3.75Q115.84-3.5 115.84-3L115.84-3Q115.84-2.6 115.44-1.75 115.04-0.9 114.06-0.2 113.09 0.5 111.44 0.5ZM122.39 0.55L122.39 0.55Q120.59 0.55 120.79-0.65L120.79-0.65Q121.34-2.8 121.71-5.03 122.09-7.25 122.09-9.3L122.09-9.3Q122.09-11.95 121.76-13.18 121.44-14.4 120.89-14.88 120.34-15.35 119.54-15.6L119.54-15.6Q119.19-15.75 118.91-16 118.64-16.25 118.64-16.7L118.64-16.7Q118.64-17.4 119.19-18.25 119.74-19.1 120.76-19.73 121.79-20.35 123.09-20.35L123.09-20.35Q124.79-20.35 125.44-19.18 126.09-18 126.09-16.1L126.09-16.1Q126.09-14.85 125.84-13.3 125.59-11.75 125.34-10.5L125.34-10.5 125.49-10.45Q126.49-13.1 127.91-15.38 129.34-17.65 131.24-19.05 133.14-20.45 135.64-20.45L135.64-20.45Q138.29-20.45 139.69-18.85 141.09-17.25 141.09-14.85L141.09-14.85Q141.09-13.85 140.86-12.95 140.64-12.05 140.39-11.2L140.39-11.2Q140.14-10.4 139.96-9.55 139.79-8.7 139.79-7.85L139.79-7.85Q139.79-5 142.49-4L142.49-4Q143.19-3.7 143.19-3.1L143.19-3.1Q143.19-2.65 142.89-1.8 142.59-0.95 141.79-0.23 140.99 0.5 139.44 0.5L139.44 0.5Q137.44 0.5 136.34-0.93 135.24-2.35 135.24-4.55L135.24-4.55Q135.24-5.8 135.51-7.08 135.79-8.35 136.09-9.45L136.09-9.45Q136.29-10.3 136.46-11.13 136.64-11.95 136.64-12.6L136.64-12.6Q136.64-14.9 134.24-14.9L134.24-14.9Q132.19-14.9 130.64-13.38 129.09-11.85 127.99-9.55 126.89-7.25 126.19-4.9L126.19-4.9 126.19-3.7Q126.19-1.85 125.16-0.65 124.14 0.55 122.39 0.55ZM152.88 13.8L152.88 13.8Q149.13 13.8 146.93 12.25 144.73 10.7 144.73 8.25L144.73 8.25Q144.73 6.45 145.86 5.05 146.98 3.65 148.83 3.65L148.83 3.65Q149.88 3.65 149.88 4.25L149.88 4.25Q149.88 4.6 149.76 5.05 149.63 5.5 149.63 5.95L149.63 5.95Q149.63 7.35 151.23 8.03 152.83 8.7 155.08 8.7L155.08 8.7Q156.48 8.7 157.93 8.4 159.38 8.1 160.36 7.48 161.33 6.85 161.33 5.8L161.33 5.8Q161.33 4.65 160.18 4.1 159.03 3.55 157.28 3.28 155.53 3 153.71 2.78 151.88 2.55 150.58 2.05L150.58 2.05Q148.93 1.5 148.13 0.7 147.33-0.1 147.33-1.35L147.33-1.35Q147.33-3.7 150.18-5.1L150.18-5.1Q148.53-5.95 147.71-7.5 146.88-9.05 146.88-10.95L146.88-10.95Q146.88-13.4 148.16-15.55 149.43-17.7 151.96-19.07 154.48-20.45 158.28-20.45L158.28-20.45Q159.98-20.45 161.73-20.13 163.48-19.8 164.66-18.93 165.83-18.05 165.83-16.4L165.83-16.4Q165.83-15.8 165.58-15.08 165.33-14.35 164.63-14.35L164.63-14.35Q164.33-14.35 163.83-14.48 163.33-14.6 162.93-14.7L162.93-14.7Q163.03-14.2 163.11-13.6 163.18-13 163.18-12.35L163.18-12.35Q163.18-9.4 161.18-7.03 159.18-4.65 155.33-4.2L155.33-4.2Q153.93-4.1 153.26-3.88 152.58-3.65 152.58-3.1L152.58-3.1Q152.58-2.6 153.18-2.38 153.78-2.15 154.73-2.05L154.73-2.05Q157.78-1.8 160.13-1.2 162.48-0.6 163.81 0.73 165.13 2.05 165.13 4.5L165.13 4.5Q165.13 7.35 163.46 9.43 161.78 11.5 158.98 12.65 156.18 13.8 152.88 13.8ZM154.78-8.55L154.78-8.55Q157.08-8.55 158.38-9.8 159.68-11.05 159.68-13.05L159.68-13.05Q159.68-13.6 159.58-14.18 159.48-14.75 159.38-15.15L159.38-15.15Q158.58-15.4 157.83-15.48 157.08-15.55 156.38-15.55L156.38-15.55Q153.73-15.55 152.23-14.55 150.73-13.55 150.73-11.8L150.73-11.8Q150.73-10.25 151.83-9.4 152.93-8.55 154.78-8.55ZM211.78 8.8L211.78 8.8Q208.88 8.8 206.35 7.48 203.83 6.15 201.8 4.17 199.78 2.2 198.23 0.25L198.23 0.25Q197.33 0.45 196.4 0.55 195.48 0.65 194.58 0.65L194.58 0.65Q191.38 0.65 188.88-0.6 186.38-1.85 184.95-4.1 183.53-6.35 183.43-9.3L183.43-9.3Q183.38-13.3 186.18-16.25L186.18-16.25Q188.53-18.75 190.58-18.75L190.58-18.75Q191.63-18.75 192.18-18.03 192.73-17.3 193.38-15.85L193.38-15.85Q194.58-13.3 196.2-10.73 197.83-8.15 199.83-5.6L199.83-5.6Q202.93-6.75 204.93-9.65 206.93-12.55 206.83-16.6L206.83-16.6Q206.78-20 205.38-22.25 203.98-24.5 201.75-25.63 199.53-26.75 196.93-26.75L196.93-26.75Q194.18-26.75 192.1-25.68 190.03-24.6 188.58-23.13 187.13-21.65 186.28-20.4L186.28-20.4Q186.08-20.1 185.73-20 185.38-19.9 185.13-19.9L185.13-19.9Q184.38-19.9 184.1-20.5 183.83-21.1 183.83-22L183.83-22Q183.78-23.7 184.75-25.53 185.73-27.35 187.55-28.9 189.38-30.45 191.88-31.4 194.38-32.35 197.43-32.35L197.43-32.35Q203.58-32.35 207.03-28.5 210.48-24.65 210.58-18L210.58-18Q210.68-12.45 208.5-8.25 206.33-4.05 202.63-1.7L202.63-1.7Q203.93-0.4 205.63 0.73 207.33 1.85 209.23 2.5 211.13 3.15 212.93 3.15L212.93 3.15Q214.28 3.15 215.3 2.85 216.33 2.55 216.53 2.55L216.53 2.55Q216.93 2.55 217.15 3.28 217.38 4 217.38 4.7L217.38 4.7Q217.38 6.85 215.7 7.83 214.03 8.8 211.78 8.8ZM194.98-5L194.98-5Q193.23-7.2 192.18-9.2 191.13-11.2 190.13-13.55L190.13-13.55Q189.78-14.15 189.33-14.15L189.33-14.15Q188.63-14.15 187.98-13.2 187.33-12.25 187.38-10.9L187.38-10.9Q187.43-8.6 189.55-6.95 191.68-5.3 194.98-5ZM220.93 0.65L220.93 0.65Q218.43 0.65 217.05-0.8 215.68-2.25 215.68-5L215.68-5Q215.68-6.95 216.23-9L216.23-9Q216.48-9.85 216.63-10.7 216.78-11.55 216.78-12.4L216.78-12.4Q216.78-14.6 215.43-15.25L215.43-15.25Q214.13-15.95 214.13-16.75L214.13-16.75Q214.13-17.55 214.8-18.35 215.48-19.15 216.48-19.68 217.48-20.2 218.48-20.2L218.48-20.2Q221.33-20.2 221.33-15.55L221.33-15.55Q221.33-14.05 221.1-12.78 220.88-11.5 220.58-10.35L220.58-10.35Q220.38-9.55 220.25-8.75 220.13-7.95 220.13-7.35L220.13-7.35Q220.13-4.85 222.58-4.85L222.58-4.85Q224.88-4.85 226.88-7.3 228.88-9.75 230.18-14.15L230.18-14.15 230.13-15.1Q230.03-17.6 231-18.9 231.98-20.2 233.88-20.2L233.88-20.2Q235.53-20.2 235.53-19.15L235.53-19.15Q235.53-18.8 235.4-18.25 235.28-17.7 235.03-16.95L235.03-16.95Q234.53-15.1 234.18-13.03 233.83-10.95 233.83-9.2L233.83-9.2Q233.83-7.25 234.43-5.98 235.03-4.7 236.68-4.25L236.68-4.25Q237.13-4.2 237.4-3.98 237.68-3.75 237.68-3.05L237.68-3.05Q237.68-1.85 236.68-0.7 235.68 0.45 233.78 0.45L233.78 0.45Q230.13 0.45 230.13-4.7L230.13-4.7Q230.13-5.6 230.28-7.4L230.28-7.4 230.18-7.45Q227.03 0.65 220.93 0.65ZM246.72 0.65L246.72 0.65Q243.72 0.65 241.9-1.23 240.07-3.1 240.07-6.6L240.07-6.6Q240.07-9.1 241.05-11.58 242.02-14.05 243.87-16.05 245.72-18.05 248.32-19.25 250.92-20.45 254.17-20.45L254.17-20.45Q257.17-20.45 259.3-19.43 261.42-18.4 261.42-16.65L261.42-16.65Q261.42-16.2 261.32-15.48 261.22-14.75 261.07-14.3L261.07-14.3Q260.92-13.9 260.65-13.58 260.37-13.25 259.92-13.25L259.92-13.25Q259.72-13.25 259.17-13.4L259.17-13.4Q258.97-12.35 258.87-11.35 258.77-10.35 258.77-9.35L258.77-9.35Q258.77-7.45 259.35-5.98 259.92-4.5 261.62-4.15L261.62-4.15Q262.07-4.05 262.35-3.85 262.62-3.65 262.62-3L262.62-3Q262.62-2.45 262.35-1.6 262.07-0.75 261.3-0.08 260.52 0.6 259.07 0.6L259.07 0.6Q257.12 0.6 256.07-0.83 255.02-2.25 255.02-4.9L255.02-4.9Q253.67-2.45 251.6-0.9 249.52 0.65 246.72 0.65ZM248.32-4.55L248.32-4.55Q250.32-4.55 251.85-5.8 253.37-7.05 254.22-8.95L254.22-8.95Q254.77-10.15 255.07-11.58 255.37-13 255.47-14.4L255.47-14.4Q254.62-14.8 253.52-15.05 252.42-15.3 251.22-15.3L251.22-15.3Q248.17-15.3 246.2-13.5 244.22-11.7 244.22-9L244.22-9Q244.22-7 245.32-5.78 246.42-4.55 248.32-4.55ZM269.42 0.5L269.42 0.5Q267.97 0.5 267.27-0.3 266.57-1.1 266.57-3.1L266.57-3.1Q266.57-4.05 266.72-5.55 266.87-7.05 267.07-8.8L267.07-8.8Q267.37-10.95 267.6-13.3 267.82-15.65 267.82-17.8L267.82-17.8Q267.82-20.85 267.55-24.13 267.27-27.4 266.02-29.85L266.02-29.85Q265.57-30.85 265.57-31.3L265.57-31.3Q265.57-31.95 266.15-32.55 266.72-33.15 267.57-33.58 268.42-34 269.22-34L269.22-34Q270.52-34 271.17-32.83 271.82-31.65 272.02-29.63 272.22-27.6 272.22-25L272.22-25Q272.22-21.05 271.9-18.15 271.57-15.25 271.27-13.05L271.27-13.05Q271.07-11.6 270.9-10.3 270.72-9 270.72-7.95L270.72-7.95Q270.72-6.2 271.3-5.43 271.87-4.65 273.17-3.9L273.17-3.9Q273.52-3.7 273.7-3.53 273.87-3.35 273.87-3L273.87-3Q273.87-2.6 273.47-1.75 273.07-0.9 272.1-0.2 271.12 0.5 269.42 0.5ZM281.32-24.85L281.32-24.85Q279.92-24.9 279.07-25.7 278.22-26.5 278.22-27.95L278.22-27.95Q278.27-29.5 279.27-30.48 280.27-31.45 281.82-31.4L281.82-31.4Q283.27-31.35 284.09-30.55 284.92-29.75 284.87-28.3L284.87-28.3Q284.82-26.8 283.87-25.83 282.92-24.85 281.32-24.85ZM281.37 0.5L281.37 0.5Q279.87 0.5 279.02-0.33 278.17-1.15 278.17-3.15L278.17-3.15Q278.17-4.3 278.39-5.4 278.62-6.5 278.92-7.55L278.92-7.55Q279.27-8.65 279.49-9.8 279.72-10.95 279.72-12.25L279.72-12.25Q279.72-13.15 279.47-13.98 279.22-14.8 278.37-15.2L278.37-15.2Q277.72-15.55 277.24-15.93 276.77-16.3 276.77-16.9L276.77-16.9Q276.77-17.6 277.42-18.4 278.07-19.2 279.14-19.78 280.22-20.35 281.37-20.35L281.37-20.35Q282.62-20.35 283.19-19.7 283.77-19.05 283.97-18.05 284.17-17.05 284.17-16L284.17-16Q284.17-14.4 283.92-12.88 283.67-11.35 283.42-10.05L283.42-10.05Q283.22-9.1 283.12-8.3 283.02-7.5 283.02-6.8L283.02-6.8Q283.02-5.55 283.62-4.93 284.22-4.3 285.32-3.75L285.32-3.75Q285.77-3.5 285.77-3L285.77-3Q285.77-2.6 285.37-1.75 284.97-0.9 283.99-0.2 283.02 0.5 281.37 0.5ZM296.81 0.65L296.81 0.65Q293.76 0.65 292.44-1.38 291.12-3.4 291.12-6.6L291.12-6.6Q291.12-7.75 291.24-8.85 291.37-9.95 291.51-11.05L291.51-11.05Q291.67-12.15 291.81-13.2 291.97-14.25 292.06-15.2L292.06-15.2Q291.01-14.9 289.97-14.9L289.97-14.9Q288.87-14.9 288.87-15.8L288.87-15.8Q288.87-16.75 289.72-18.13 290.56-19.5 291.84-20.85 293.12-22.2 294.39-23.13 295.67-24.05 296.56-24.05L296.56-24.05Q297.67-24.05 297.67-22.15L297.67-22.15Q297.67-21.65 297.59-21.13 297.51-20.6 297.42-20.05L297.42-20.05Q298.37-20.25 299.34-20.4 300.31-20.55 301.22-20.55L301.22-20.55Q302.37-20.55 302.99-20.15 303.62-19.75 303.62-18.6L303.62-18.6Q303.62-17.4 303.04-16.2 302.47-15 301.76-15L301.76-15Q301.62-15 301.26-15.05 300.92-15.1 300.42-15.2L300.42-15.2Q299.76-15.35 298.76-15.5 297.76-15.65 296.37-15.65L296.37-15.65Q296.01-14.1 295.74-12.48 295.47-10.85 295.47-9.55L295.47-9.55Q295.47-6.65 296.92-5.6 298.37-4.55 301.12-4.55L301.12-4.55Q301.97-4.55 302.31-4.28 302.67-4 302.67-3.3L302.67-3.3Q302.67-1.65 300.97-0.5 299.26 0.65 296.81 0.65ZM307.66 13.8L307.66 13.8Q305.61 13.8 304.14 12.7 302.66 11.6 302.66 9.75L302.66 9.75Q302.66 8.3 303.54 7.28 304.41 6.25 305.71 6.25L305.71 6.25Q306.31 6.25 306.56 6.45 306.81 6.65 306.96 6.9L306.96 6.9Q307.36 7.55 307.89 8.03 308.41 8.5 309.31 8.5L309.31 8.5Q310.51 8.5 311.64 7.65 312.76 6.8 313.71 5.7L313.71 5.7Q314.56 4.75 315.76 2.98 316.96 1.2 318.16-1.05L318.16-1.05Q317.06-0.1 316.11 0.33 315.16 0.75 314.31 0.75L314.31 0.75Q313.26 0.75 312.26-0.03 311.26-0.8 311.01-2.95L311.01-2.95Q310.86-4.6 310.44-6.6 310.01-8.6 309.39-10.48 308.76-12.35 307.86-13.65L307.86-13.65Q307.51-14.25 307.06-14.55 306.61-14.85 305.76-14.95L305.76-14.95Q305.16-15 304.99-15.3 304.81-15.6 304.81-16.25L304.81-16.25Q304.81-18.05 305.81-19.15 306.81-20.25 308.51-20.25L308.51-20.25Q310.56-20.25 311.46-18.68 312.36-17.1 313.01-14.85L313.01-14.85Q313.26-13.95 313.54-12.48 313.81-11 314.04-9.3 314.26-7.6 314.36-6.05L314.36-6.05Q314.41-4.95 315.61-4.95L315.61-4.95Q317.21-4.95 318.66-5.95 320.11-6.95 321.04-8.55 321.96-10.15 321.96-11.9L321.96-11.9Q321.96-12.9 321.71-13.7 321.46-14.5 320.86-15.1L320.86-15.1Q320.36-15.7 320.06-16.07 319.76-16.45 319.76-16.95L319.76-16.95Q319.76-17.8 320.56-18.55 321.36-19.3 322.49-19.8 323.61-20.3 324.46-20.3L324.46-20.3Q325.96-20.3 326.46-18.88 326.96-17.45 326.71-15.75L326.71-15.75Q326.41-13.4 325.51-10.2 324.61-7 323.19-3.5 321.76 0 319.94 3.28 318.11 6.55 316.06 9L316.06 9Q314.31 11.15 312.16 12.48 310.01 13.8 307.66 13.8ZM354.26 0.65L354.26 0.65Q349.51 0.65 347.23-0.88 344.96-2.4 344.96-6.6L344.96-6.6Q344.96-7.45 345.08-8.65 345.21-9.85 345.46-11.55L345.46-11.55Q345.86-14 346.06-15.93 346.26-17.85 346.26-20.15L346.26-20.15Q346.26-21.65 346.18-23.05 346.11-24.45 345.91-25.7L345.91-25.7Q345.16-25.55 344.91-25.55L344.91-25.55Q344.51-25.55 344.36-25.73 344.21-25.9 344.21-26.4L344.21-26.4Q344.21-27.45 344.46-28.48 344.71-29.5 345.16-30.15L345.16-30.15Q346.01-31.35 347.76-31.55L347.76-31.55Q349.11-31.7 351.08-31.85 353.06-32 355.13-32.08 357.21-32.15 358.86-32.15L358.86-32.15Q363.46-32.15 364.31-31.95L364.31-31.95Q365.61-31.75 365.61-30.55L365.61-30.55Q365.61-29.05 364.56-27.8L364.56-27.8Q364.01-27.05 363.46-26.73 362.91-26.4 361.91-26.45L361.91-26.45Q359.71-26.6 358.06-26.65 356.41-26.7 355.76-26.7L355.76-26.7Q354.61-26.7 353.38-26.65 352.16-26.6 350.91-26.5L350.91-26.5Q350.91-24.75 350.76-22.75 350.61-20.75 350.36-18.55L350.36-18.55Q352.66-18.7 355.56-18.78 358.46-18.85 360.71-18.85L360.71-18.85Q361.71-18.85 362.08-18.65 362.46-18.45 362.46-17.6L362.46-17.6Q362.46-16.8 362.03-15.83 361.61-14.85 360.91-14.15L360.91-14.15Q360.61-13.85 360.26-13.68 359.91-13.5 359.31-13.55L359.31-13.55Q357.16-13.65 354.43-13.7 351.71-13.75 349.66-13.7L349.66-13.7Q349.46-12.55 349.36-11.6 349.26-10.65 349.26-9.9L349.26-9.9Q349.26-7.15 350.66-6.05 352.06-4.95 355.26-4.95L355.26-4.95Q357.21-4.95 359.03-5.3 360.86-5.65 362.76-6.6L362.76-6.6Q363.46-7 363.81-7L363.81-7Q364.36-7 364.88-6.23 365.41-5.45 365.41-4.55L365.41-4.55Q365.41-3.45 364.58-2.48 363.76-1.5 362.41-0.8L362.41-0.8Q360.86-0.1 358.71 0.28 356.56 0.65 354.26 0.65ZM374.4 0.65L374.4 0.65Q371.4 0.65 369.68-1.35 367.95-3.35 367.95-6.8L367.95-6.8Q367.95-9.35 368.78-11.8 369.61-14.25 371.11-16.2 372.61-18.15 374.61-19.3 376.61-20.45 378.95-20.45L378.95-20.45Q380.45-20.45 381.63-20 382.81-19.55 383.7-18.85L383.7-18.85Q383.65-22.25 383.36-24.95 383.06-27.65 381.9-29.95L381.9-29.95Q381.7-30.35 381.58-30.68 381.45-31 381.45-31.3L381.45-31.3Q381.45-32 382.03-32.6 382.61-33.2 383.45-33.6 384.31-34 385.06-34L385.06-34Q386.4-34 387.08-32.83 387.75-31.65 387.95-29.63 388.15-27.6 388.15-25L388.15-25Q388.15-21.2 387.81-18.15 387.45-15.1 387.15-12.8L387.15-12.8Q386.95-11.3 386.81-10.2 386.65-9.1 386.65-8.4L386.65-8.4Q386.65-4.85 389.7-4.2L389.7-4.2Q390.5-4.05 390.5-3.15L390.5-3.15Q390.5-2.6 390.18-1.75 389.86-0.9 389-0.23 388.15 0.45 386.56 0.45L386.56 0.45Q384.4 0.45 383.65-1 382.9-2.45 382.9-5.4L382.9-5.4Q381.5-2.85 379.36-1.1 377.2 0.65 374.4 0.65ZM375.95-4.7L375.95-4.7Q377.36-4.7 378.75-5.6 380.15-6.5 381.25-8.05L381.25-8.05Q381.9-9 382.43-10.23 382.95-11.45 383.4-12.7L383.4-12.7Q380.86-15 377.75-15L377.75-15Q375.06-15 373.45-13.38 371.86-11.75 371.86-9.35L371.86-9.35Q371.86-7.3 373.06-6 374.25-4.7 375.95-4.7ZM400 0.65L400 0.65Q397.5 0.65 396.13-0.8 394.75-2.25 394.75-5L394.75-5Q394.75-6.95 395.3-9L395.3-9Q395.55-9.85 395.7-10.7 395.85-11.55 395.85-12.4L395.85-12.4Q395.85-14.6 394.5-15.25L394.5-15.25Q393.2-15.95 393.2-16.75L393.2-16.75Q393.2-17.55 393.88-18.35 394.55-19.15 395.55-19.68 396.55-20.2 397.55-20.2L397.55-20.2Q400.4-20.2 400.4-15.55L400.4-15.55Q400.4-14.05 400.18-12.78 399.95-11.5 399.65-10.35L399.65-10.35Q399.45-9.55 399.33-8.75 399.2-7.95 399.2-7.35L399.2-7.35Q399.2-4.85 401.65-4.85L401.65-4.85Q403.95-4.85 405.95-7.3 407.95-9.75 409.25-14.15L409.25-14.15 409.2-15.1Q409.1-17.6 410.08-18.9 411.05-20.2 412.95-20.2L412.95-20.2Q414.6-20.2 414.6-19.15L414.6-19.15Q414.6-18.8 414.48-18.25 414.35-17.7 414.1-16.95L414.1-16.95Q413.6-15.1 413.25-13.03 412.9-10.95 412.9-9.2L412.9-9.2Q412.9-7.25 413.5-5.98 414.1-4.7 415.75-4.25L415.75-4.25Q416.2-4.2 416.48-3.98 416.75-3.75 416.75-3.05L416.75-3.05Q416.75-1.85 415.75-0.7 414.75 0.45 412.85 0.45L412.85 0.45Q409.2 0.45 409.2-4.7L409.2-4.7Q409.2-5.6 409.35-7.4L409.35-7.4 409.25-7.45Q406.1 0.65 400 0.65ZM426.85 0.65L426.85 0.65Q423.35 0.65 421.38-1.48 419.4-3.6 419.4-7.4L419.4-7.4Q419.4-11.15 421-14.1 422.6-17.05 425.4-18.75 428.2-20.45 431.75-20.45L431.75-20.45Q434.15-20.45 435.55-19.65 436.95-18.85 436.95-17.45L436.95-17.45Q436.95-16.2 435.75-15L435.75-15Q435.3-14.55 434.58-14.18 433.85-13.8 433.45-13.8L433.45-13.8Q433-13.8 432.7-14.15L432.7-14.15Q432.2-14.7 431.4-15.2 430.6-15.7 429.15-15.7L429.15-15.7Q426.7-15.7 425.15-14.03 423.6-12.35 423.6-9.65L423.6-9.65Q423.6-7.2 425-5.7 426.4-4.2 428.7-4.2L428.7-4.2Q429.9-4.2 431.33-4.63 432.75-5.05 433.85-5.85L433.85-5.85Q434.4-6.35 435-6.35L435-6.35Q436-6.35 436-5.1L436-5.1Q436-3.45 434.35-1.95L434.35-1.95Q433.1-0.8 431.03-0.08 428.95 0.65 426.85 0.65ZM445.9 0.65L445.9 0.65Q442.9 0.65 441.07-1.23 439.25-3.1 439.25-6.6L439.25-6.6Q439.25-9.1 440.22-11.58 441.2-14.05 443.05-16.05 444.9-18.05 447.5-19.25 450.1-20.45 453.35-20.45L453.35-20.45Q456.35-20.45 458.47-19.43 460.6-18.4 460.6-16.65L460.6-16.65Q460.6-16.2 460.5-15.48 460.4-14.75 460.25-14.3L460.25-14.3Q460.1-13.9 459.82-13.58 459.55-13.25 459.1-13.25L459.1-13.25Q458.9-13.25 458.35-13.4L458.35-13.4Q458.15-12.35 458.05-11.35 457.95-10.35 457.95-9.35L457.95-9.35Q457.95-7.45 458.52-5.98 459.1-4.5 460.8-4.15L460.8-4.15Q461.25-4.05 461.52-3.85 461.8-3.65 461.8-3L461.8-3Q461.8-2.45 461.52-1.6 461.25-0.75 460.47-0.08 459.7 0.6 458.25 0.6L458.25 0.6Q456.3 0.6 455.25-0.83 454.2-2.25 454.2-4.9L454.2-4.9Q452.85-2.45 450.77-0.9 448.7 0.65 445.9 0.65ZM447.5-4.55L447.5-4.55Q449.5-4.55 451.02-5.8 452.55-7.05 453.4-8.95L453.4-8.95Q453.95-10.15 454.25-11.58 454.55-13 454.65-14.4L454.65-14.4Q453.8-14.8 452.7-15.05 451.6-15.3 450.4-15.3L450.4-15.3Q447.35-15.3 445.37-13.5 443.4-11.7 443.4-9L443.4-9Q443.4-7 444.5-5.78 445.6-4.55 447.5-4.55ZM472.2 0.65L472.2 0.65Q469.15 0.65 467.82-1.38 466.5-3.4 466.5-6.6L466.5-6.6Q466.5-7.75 466.62-8.85 466.75-9.95 466.9-11.05L466.9-11.05Q467.05-12.15 467.2-13.2 467.35-14.25 467.45-15.2L467.45-15.2Q466.4-14.9 465.35-14.9L465.35-14.9Q464.25-14.9 464.25-15.8L464.25-15.8Q464.25-16.75 465.1-18.13 465.95-19.5 467.22-20.85 468.5-22.2 469.77-23.13 471.05-24.05 471.95-24.05L471.95-24.05Q473.05-24.05 473.05-22.15L473.05-22.15Q473.05-21.65 472.97-21.13 472.9-20.6 472.8-20.05L472.8-20.05Q473.75-20.25 474.72-20.4 475.7-20.55 476.6-20.55L476.6-20.55Q477.75-20.55 478.37-20.15 479-19.75 479-18.6L479-18.6Q479-17.4 478.42-16.2 477.85-15 477.15-15L477.15-15Q477-15 476.65-15.05 476.3-15.1 475.8-15.2L475.8-15.2Q475.15-15.35 474.15-15.5 473.15-15.65 471.75-15.65L471.75-15.65Q471.4-14.1 471.12-12.48 470.85-10.85 470.85-9.55L470.85-9.55Q470.85-6.65 472.3-5.6 473.75-4.55 476.5-4.55L476.5-4.55Q477.35-4.55 477.7-4.28 478.05-4 478.05-3.3L478.05-3.3Q478.05-1.65 476.35-0.5 474.65 0.65 472.2 0.65ZM485.84-24.85L485.84-24.85Q484.44-24.9 483.59-25.7 482.74-26.5 482.74-27.95L482.74-27.95Q482.79-29.5 483.79-30.48 484.79-31.45 486.34-31.4L486.34-31.4Q487.79-31.35 488.62-30.55 489.44-29.75 489.39-28.3L489.39-28.3Q489.34-26.8 488.39-25.83 487.44-24.85 485.84-24.85ZM485.89 0.5L485.89 0.5Q484.39 0.5 483.54-0.33 482.69-1.15 482.69-3.15L482.69-3.15Q482.69-4.3 482.92-5.4 483.14-6.5 483.44-7.55L483.44-7.55Q483.79-8.65 484.02-9.8 484.24-10.95 484.24-12.25L484.24-12.25Q484.24-13.15 483.99-13.98 483.74-14.8 482.89-15.2L482.89-15.2Q482.24-15.55 481.77-15.93 481.29-16.3 481.29-16.9L481.29-16.9Q481.29-17.6 481.94-18.4 482.59-19.2 483.67-19.78 484.74-20.35 485.89-20.35L485.89-20.35Q487.14-20.35 487.72-19.7 488.29-19.05 488.49-18.05 488.69-17.05 488.69-16L488.69-16Q488.69-14.4 488.44-12.88 488.19-11.35 487.94-10.05L487.94-10.05Q487.74-9.1 487.64-8.3 487.54-7.5 487.54-6.8L487.54-6.8Q487.54-5.55 488.14-4.93 488.74-4.3 489.84-3.75L489.84-3.75Q490.29-3.5 490.29-3L490.29-3Q490.29-2.6 489.89-1.75 489.49-0.9 488.52-0.2 487.54 0.5 485.89 0.5ZM501.94 0.65L501.94 0.65Q498.49 0.65 496.42-1.23 494.34-3.1 494.34-6.75L494.34-6.75Q494.34-8.45 494.82-10.05 495.29-11.65 496.09-13.05L496.09-13.05Q495.29-12.55 494.89-12.55L494.89-12.55Q494.29-12.55 494.07-13.23 493.84-13.9 493.84-14.55L493.84-14.55Q493.84-15.7 494.32-16.38 494.79-17.05 495.24-17.4L495.24-17.4Q496.29-18.3 498.54-19.38 500.79-20.45 503.94-20.45L503.94-20.45Q508.24-20.45 510.62-18.05 512.99-15.65 512.99-11.35L512.99-11.35Q512.99-8 511.59-5.28 510.19-2.55 507.72-0.95 505.24 0.65 501.94 0.65ZM503.49-4.45L503.49-4.45Q505.99-4.45 507.72-6.03 509.44-7.6 509.44-10.2L509.44-10.2Q509.44-12.9 507.69-14.05 505.94-15.2 503.64-15.2L503.64-15.2Q502.59-15.2 501.74-15 500.89-14.8 500.14-14.5L500.14-14.5Q499.44-13.5 498.89-12.25 498.34-11 498.34-9.5L498.34-9.5Q498.34-7 499.84-5.73 501.34-4.45 503.49-4.45ZM519.64 0.55L519.64 0.55Q517.84 0.55 518.04-0.65L518.04-0.65Q518.59-2.8 518.96-5.03 519.34-7.25 519.34-9.3L519.34-9.3Q519.34-11.95 519.01-13.18 518.69-14.4 518.14-14.88 517.59-15.35 516.79-15.6L516.79-15.6Q516.44-15.75 516.16-16 515.89-16.25 515.89-16.7L515.89-16.7Q515.89-17.4 516.44-18.25 516.99-19.1 518.01-19.73 519.04-20.35 520.34-20.35L520.34-20.35Q522.04-20.35 522.69-19.18 523.34-18 523.34-16.1L523.34-16.1Q523.34-14.85 523.09-13.3 522.84-11.75 522.59-10.5L522.59-10.5 522.74-10.45Q523.74-13.1 525.16-15.38 526.59-17.65 528.49-19.05 530.39-20.45 532.89-20.45L532.89-20.45Q535.54-20.45 536.94-18.85 538.34-17.25 538.34-14.85L538.34-14.85Q538.34-13.85 538.11-12.95 537.89-12.05 537.64-11.2L537.64-11.2Q537.39-10.4 537.21-9.55 537.04-8.7 537.04-7.85L537.04-7.85Q537.04-5 539.74-4L539.74-4Q540.44-3.7 540.44-3.1L540.44-3.1Q540.44-2.65 540.14-1.8 539.84-0.95 539.04-0.23 538.24 0.5 536.69 0.5L536.69 0.5Q534.69 0.5 533.59-0.93 532.49-2.35 532.49-4.55L532.49-4.55Q532.49-5.8 532.76-7.08 533.04-8.35 533.34-9.45L533.34-9.45Q533.54-10.3 533.71-11.13 533.89-11.95 533.89-12.6L533.89-12.6Q533.89-14.9 531.49-14.9L531.49-14.9Q529.44-14.9 527.89-13.38 526.34-11.85 525.24-9.55 524.14-7.25 523.44-4.9L523.44-4.9 523.44-3.7Q523.44-1.85 522.41-0.65 521.39 0.55 519.64 0.55ZM566.83 0.5L566.83 0.5Q566.23 0.5 565.61 0.3 564.98 0.1 564.58-0.65 564.18-1.4 564.18-2.95L564.18-2.95Q564.18-4.05 564.36-5.65 564.53-7.25 564.83-9.1L564.83-9.1Q565.23-11.6 565.51-14.38 565.78-17.15 565.78-20.05L565.78-20.05Q565.78-22.4 565.56-24.13 565.33-25.85 564.98-26.8L564.98-26.8Q563.08-26.75 561.38-26.55 559.68-26.35 557.93-25.9L557.93-25.9Q557.48-25.85 557.16-25.78 556.83-25.7 556.53-25.7L556.53-25.7Q556.08-25.7 555.88-25.88 555.68-26.05 555.68-26.75L555.68-26.75Q555.68-27.6 555.93-28.53 556.18-29.45 556.68-30.1L556.68-30.1Q557.18-30.8 557.86-31.13 558.53-31.45 559.33-31.55L559.33-31.55Q560.58-31.7 562.53-31.83 564.48-31.95 566.81-32.05 569.13-32.15 571.38-32.15L571.38-32.15Q575.03-32.15 576.61-32.1 578.18-32.05 578.73-31.95L578.73-31.95Q579.43-31.85 579.71-31.53 579.98-31.2 579.98-30.5L579.98-30.5Q579.98-29.15 578.78-27.8L578.78-27.8Q578.28-27.2 577.73-26.88 577.18-26.55 576.28-26.6L576.28-26.6Q575.48-26.7 573.93-26.75 572.38-26.8 570.48-26.8L570.48-26.8Q570.43-25.05 570.21-22.73 569.98-20.4 569.68-18.05L569.68-18.05Q569.38-15.75 569.18-13.45 568.98-11.15 568.98-9.25L568.98-9.25Q568.98-7.5 569.31-6.18 569.63-4.85 570.63-3.9L570.63-3.9Q571.33-3.2 571.33-2.4L571.33-2.4Q571.33-1.3 570.08-0.4 568.83 0.5 566.83 0.5ZM585.08 0.65L585.08 0.65Q581.63 0.65 579.55-1.23 577.48-3.1 577.48-6.75L577.48-6.75Q577.48-8.45 577.95-10.05 578.43-11.65 579.23-13.05L579.23-13.05Q578.43-12.55 578.03-12.55L578.03-12.55Q577.43-12.55 577.2-13.23 576.98-13.9 576.98-14.55L576.98-14.55Q576.98-15.7 577.45-16.38 577.93-17.05 578.38-17.4L578.38-17.4Q579.43-18.3 581.68-19.38 583.93-20.45 587.08-20.45L587.08-20.45Q591.38-20.45 593.75-18.05 596.13-15.65 596.13-11.35L596.13-11.35Q596.13-8 594.73-5.28 593.33-2.55 590.85-0.95 588.38 0.65 585.08 0.65ZM586.63-4.45L586.63-4.45Q589.13-4.45 590.85-6.03 592.58-7.6 592.58-10.2L592.58-10.2Q592.58-12.9 590.83-14.05 589.08-15.2 586.78-15.2L586.78-15.2Q585.73-15.2 584.88-15 584.03-14.8 583.28-14.5L583.28-14.5Q582.58-13.5 582.03-12.25 581.48-11 581.48-9.5L581.48-9.5Q581.48-7 582.98-5.73 584.48-4.45 586.63-4.45ZM622.12 0.2L622.12 0.2Q620.57 0.2 619.77-0.48 618.97-1.15 618.97-2.85L618.97-2.85Q618.97-4.15 619.4-6.48 619.82-8.8 620.62-11.65L620.62-11.65Q620.22-13.65 619.65-15.83 619.07-18 618.32-19.95L618.32-19.95Q617.37-22.6 616.02-24.4 614.67-26.2 612.82-26.2L612.82-26.2Q612.47-26.2 612.15-26.15 611.82-26.1 611.57-26L611.57-26Q611.07-25.9 610.55-26.7 610.02-27.5 610.02-28.6L610.02-28.6Q610.02-30 611-31.08 611.97-32.15 613.67-32.15L613.67-32.15Q615.77-32.15 617.55-30.78 619.32-29.4 620.7-26.15 622.07-22.9 622.92-17.3L622.92-17.3Q623.82-19.6 625.1-22.18 626.37-24.75 627.97-27.03 629.57-29.3 631.42-30.73 633.27-32.15 635.32-32.15L635.32-32.15Q636.67-32.15 637.4-31.5 638.12-30.85 638.12-29.7L638.12-29.7Q638.12-28.9 637.8-28 637.47-27.1 636.92-26.45 636.37-25.8 635.77-25.8L635.77-25.8Q635.57-25.8 635.35-25.83 635.12-25.85 634.87-25.95L634.87-25.95Q634.37-26.2 633.72-26.2L633.72-26.2Q632.12-26.2 630.22-24 628.32-21.8 626.47-17.2L626.47-17.2Q624.57-12.35 624.57-7.8L624.57-7.8Q624.57-6.75 624.85-5.73 625.12-4.7 625.87-3.85L625.87-3.85Q626.37-3.1 626.37-2.45L626.37-2.45Q626.37-1.35 625.17-0.58 623.97 0.2 622.12 0.2ZM641.27 0.65L641.27 0.65Q637.82 0.65 635.75-1.23 633.67-3.1 633.67-6.75L633.67-6.75Q633.67-8.45 634.15-10.05 634.62-11.65 635.42-13.05L635.42-13.05Q634.62-12.55 634.22-12.55L634.22-12.55Q633.62-12.55 633.4-13.23 633.17-13.9 633.17-14.55L633.17-14.55Q633.17-15.7 633.65-16.38 634.12-17.05 634.57-17.4L634.57-17.4Q635.62-18.3 637.87-19.38 640.12-20.45 643.27-20.45L643.27-20.45Q647.57-20.45 649.95-18.05 652.32-15.65 652.32-11.35L652.32-11.35Q652.32-8 650.92-5.28 649.52-2.55 647.05-0.95 644.57 0.65 641.27 0.65ZM642.82-4.45L642.82-4.45Q645.32-4.45 647.05-6.03 648.77-7.6 648.77-10.2L648.77-10.2Q648.77-12.9 647.02-14.05 645.27-15.2 642.97-15.2L642.97-15.2Q641.92-15.2 641.07-15 640.22-14.8 639.47-14.5L639.47-14.5Q638.77-13.5 638.22-12.25 637.67-11 637.67-9.5L637.67-9.5Q637.67-7 639.17-5.73 640.67-4.45 642.82-4.45ZM662.42 0.65L662.42 0.65Q659.92 0.65 658.54-0.8 657.17-2.25 657.17-5L657.17-5Q657.17-6.95 657.72-9L657.72-9Q657.97-9.85 658.12-10.7 658.27-11.55 658.27-12.4L658.27-12.4Q658.27-14.6 656.92-15.25L656.92-15.25Q655.62-15.95 655.62-16.75L655.62-16.75Q655.62-17.55 656.29-18.35 656.97-19.15 657.97-19.68 658.97-20.2 659.97-20.2L659.97-20.2Q662.82-20.2 662.82-15.55L662.82-15.55Q662.82-14.05 662.59-12.78 662.37-11.5 662.07-10.35L662.07-10.35Q661.87-9.55 661.74-8.75 661.62-7.95 661.62-7.35L661.62-7.35Q661.62-4.85 664.07-4.85L664.07-4.85Q666.37-4.85 668.37-7.3 670.37-9.75 671.67-14.15L671.67-14.15 671.62-15.1Q671.52-17.6 672.49-18.9 673.47-20.2 675.37-20.2L675.37-20.2Q677.02-20.2 677.02-19.15L677.02-19.15Q677.02-18.8 676.89-18.25 676.77-17.7 676.52-16.95L676.52-16.95Q676.02-15.1 675.67-13.03 675.32-10.95 675.32-9.2L675.32-9.2Q675.32-7.25 675.92-5.98 676.52-4.7 678.17-4.25L678.17-4.25Q678.62-4.2 678.89-3.98 679.17-3.75 679.17-3.05L679.17-3.05Q679.17-1.85 678.17-0.7 677.17 0.45 675.27 0.45L675.27 0.45Q671.62 0.45 671.62-4.7L671.62-4.7Q671.62-5.6 671.77-7.4L671.77-7.4 671.67-7.45Q668.52 0.65 662.42 0.65ZM685.02 0.55L685.02 0.55Q684.22 0.55 683.74 0.28 683.27 0 683.42-0.65L683.42-0.65Q683.97-2.8 684.34-5.03 684.72-7.25 684.72-9.3L684.72-9.3Q684.72-11.95 684.39-13.18 684.07-14.4 683.52-14.88 682.97-15.35 682.17-15.6L682.17-15.6Q681.82-15.75 681.54-16 681.27-16.25 681.27-16.7L681.27-16.7Q681.27-17.4 681.82-18.25 682.37-19.1 683.37-19.73 684.37-20.35 685.67-20.35L685.67-20.35Q687.37-20.35 688.04-19.18 688.72-18 688.72-16.1L688.72-16.1Q689.62-18.1 690.94-19.28 692.27-20.45 694.27-20.45L694.27-20.45Q695.62-20.45 696.52-19.85 697.42-19.25 697.42-17.9L697.42-17.9Q697.42-16.55 696.54-15.38 695.67-14.2 694.77-14.2L694.77-14.2Q694.62-14.2 694.42-14.25 694.22-14.3 694.07-14.5L694.07-14.5Q693.42-15.3 692.47-15.3L692.47-15.3Q691.02-15.3 689.92-13.4 688.82-11.5 688.72-8.15L688.72-8.15Q688.77-6.9 688.79-5.6 688.82-4.3 688.82-3.7L688.82-3.7Q688.82-1.85 687.79-0.65 686.77 0.55 685.02 0.55ZM715.31 0.5L715.31 0.5Q714.71 0.5 714.09 0.3 713.46 0.1 713.04-0.65 712.61-1.4 712.61-2.95L712.61-2.95Q712.61-3.95 712.81-5.58 713.01-7.2 713.36-9.8L713.36-9.8Q713.61-11.45 713.94-14.23 714.26-17 714.26-20.05L714.26-20.05Q714.26-21.4 714.16-22.93 714.06-24.45 713.76-25.7L713.76-25.7Q713.16-25.55 712.86-25.55L712.86-25.55Q712.56-25.55 712.41-25.73 712.26-25.9 712.26-26.4L712.26-26.4Q712.26-27.4 712.49-28.43 712.71-29.45 713.21-30.15L713.21-30.15Q713.71-30.85 714.39-31.15 715.06-31.45 715.81-31.55L715.81-31.55Q717.06-31.7 718.99-31.83 720.91-31.95 723.04-32.05 725.16-32.15 726.91-32.15L726.91-32.15Q729.26-32.15 730.39-32.1 731.51-32.05 732.11-31.95L732.11-31.95Q733.41-31.75 733.41-30.55L733.41-30.55Q733.41-29.7 733.09-29.03 732.76-28.35 732.31-27.8L732.31-27.8Q731.76-27 731.14-26.68 730.51-26.35 729.51-26.45L729.51-26.45Q728.66-26.55 727.19-26.63 725.71-26.7 723.81-26.7L723.81-26.7Q723.01-26.7 721.71-26.65 720.41-26.6 718.96-26.5L718.96-26.5Q718.91-24.8 718.66-22.63 718.41-20.45 718.11-18.2L718.11-18.2Q719.46-18.3 721.36-18.38 723.26-18.45 725.26-18.5 727.26-18.55 728.81-18.55L728.81-18.55Q729.71-18.55 730.11-18.32 730.51-18.1 730.51-17.35L730.51-17.35Q730.51-16.5 730.09-15.53 729.66-14.55 728.99-13.85 728.31-13.15 727.56-13.2L727.56-13.2Q726.31-13.3 724.04-13.35 721.76-13.4 719.26-13.4L719.26-13.4 717.66-13.4Q717.56-12.3 717.49-11.23 717.41-10.15 717.41-9.25L717.41-9.25Q717.41-7.5 717.76-6.18 718.11-4.85 719.11-3.9L719.11-3.9Q719.76-3.25 719.76-2.4L719.76-2.4Q719.76-1.3 718.51-0.4 717.26 0.5 715.31 0.5ZM737.91-24.85L737.91-24.85Q736.51-24.9 735.66-25.7 734.81-26.5 734.81-27.95L734.81-27.95Q734.86-29.5 735.86-30.48 736.86-31.45 738.41-31.4L738.41-31.4Q739.86-31.35 740.68-30.55 741.51-29.75 741.46-28.3L741.46-28.3Q741.41-26.8 740.46-25.83 739.51-24.85 737.91-24.85ZM737.96 0.5L737.96 0.5Q736.46 0.5 735.61-0.33 734.76-1.15 734.76-3.15L734.76-3.15Q734.76-4.3 734.98-5.4 735.21-6.5 735.51-7.55L735.51-7.55Q735.86-8.65 736.08-9.8 736.31-10.95 736.31-12.25L736.31-12.25Q736.31-13.15 736.06-13.98 735.81-14.8 734.96-15.2L734.96-15.2Q734.31-15.55 733.83-15.93 733.36-16.3 733.36-16.9L733.36-16.9Q733.36-17.6 734.01-18.4 734.66-19.2 735.73-19.78 736.81-20.35 737.96-20.35L737.96-20.35Q739.21-20.35 739.78-19.7 740.36-19.05 740.56-18.05 740.76-17.05 740.76-16L740.76-16Q740.76-14.4 740.51-12.88 740.26-11.35 740.01-10.05L740.01-10.05Q739.81-9.1 739.71-8.3 739.61-7.5 739.61-6.8L739.61-6.8Q739.61-5.55 740.21-4.93 740.81-4.3 741.91-3.75L741.91-3.75Q742.36-3.5 742.36-3L742.36-3Q742.36-2.6 741.96-1.75 741.56-0.9 740.58-0.2 739.61 0.5 737.96 0.5ZM748.91 0.55L748.91 0.55Q747.11 0.55 747.31-0.65L747.31-0.65Q747.86-2.8 748.23-5.03 748.61-7.25 748.61-9.3L748.61-9.3Q748.61-11.95 748.28-13.18 747.96-14.4 747.41-14.88 746.86-15.35 746.06-15.6L746.06-15.6Q745.71-15.75 745.43-16 745.16-16.25 745.16-16.7L745.16-16.7Q745.16-17.4 745.71-18.25 746.26-19.1 747.28-19.73 748.31-20.35 749.61-20.35L749.61-20.35Q751.31-20.35 751.96-19.18 752.61-18 752.61-16.1L752.61-16.1Q752.61-14.85 752.36-13.3 752.11-11.75 751.86-10.5L751.86-10.5 752.01-10.45Q753.01-13.1 754.43-15.38 755.86-17.65 757.76-19.05 759.66-20.45 762.16-20.45L762.16-20.45Q764.81-20.45 766.21-18.85 767.61-17.25 767.61-14.85L767.61-14.85Q767.61-13.85 767.38-12.95 767.16-12.05 766.91-11.2L766.91-11.2Q766.66-10.4 766.48-9.55 766.31-8.7 766.31-7.85L766.31-7.85Q766.31-5 769.01-4L769.01-4Q769.71-3.7 769.71-3.1L769.71-3.1Q769.71-2.65 769.41-1.8 769.11-0.95 768.31-0.23 767.51 0.5 765.96 0.5L765.96 0.5Q763.96 0.5 762.86-0.93 761.76-2.35 761.76-4.55L761.76-4.55Q761.76-5.8 762.03-7.08 762.31-8.35 762.61-9.45L762.61-9.45Q762.81-10.3 762.98-11.13 763.16-11.95 763.16-12.6L763.16-12.6Q763.16-14.9 760.76-14.9L760.76-14.9Q758.71-14.9 757.16-13.38 755.61-11.85 754.51-9.55 753.41-7.25 752.71-4.9L752.71-4.9 752.71-3.7Q752.71-1.85 751.68-0.65 750.66 0.55 748.91 0.55ZM779.4 13.8L779.4 13.8Q775.65 13.8 773.45 12.25 771.25 10.7 771.25 8.25L771.25 8.25Q771.25 6.45 772.38 5.05 773.5 3.65 775.35 3.65L775.35 3.65Q776.4 3.65 776.4 4.25L776.4 4.25Q776.4 4.6 776.28 5.05 776.15 5.5 776.15 5.95L776.15 5.95Q776.15 7.35 777.75 8.03 779.35 8.7 781.6 8.7L781.6 8.7Q783 8.7 784.45 8.4 785.9 8.1 786.88 7.48 787.85 6.85 787.85 5.8L787.85 5.8Q787.85 4.65 786.7 4.1 785.55 3.55 783.8 3.28 782.05 3 780.23 2.78 778.4 2.55 777.1 2.05L777.1 2.05Q775.45 1.5 774.65 0.7 773.85-0.1 773.85-1.35L773.85-1.35Q773.85-3.7 776.7-5.1L776.7-5.1Q775.05-5.95 774.23-7.5 773.4-9.05 773.4-10.95L773.4-10.95Q773.4-13.4 774.68-15.55 775.95-17.7 778.48-19.07 781-20.45 784.8-20.45L784.8-20.45Q786.5-20.45 788.25-20.13 790-19.8 791.18-18.93 792.35-18.05 792.35-16.4L792.35-16.4Q792.35-15.8 792.1-15.08 791.85-14.35 791.15-14.35L791.15-14.35Q790.85-14.35 790.35-14.48 789.85-14.6 789.45-14.7L789.45-14.7Q789.55-14.2 789.63-13.6 789.7-13 789.7-12.35L789.7-12.35Q789.7-9.4 787.7-7.03 785.7-4.65 781.85-4.2L781.85-4.2Q780.45-4.1 779.78-3.88 779.1-3.65 779.1-3.1L779.1-3.1Q779.1-2.6 779.7-2.38 780.3-2.15 781.25-2.05L781.25-2.05Q784.3-1.8 786.65-1.2 789-0.6 790.33 0.73 791.65 2.05 791.65 4.5L791.65 4.5Q791.65 7.35 789.98 9.43 788.3 11.5 785.5 12.65 782.7 13.8 779.4 13.8ZM781.3-8.55L781.3-8.55Q783.6-8.55 784.9-9.8 786.2-11.05 786.2-13.05L786.2-13.05Q786.2-13.6 786.1-14.18 786-14.75 785.9-15.15L785.9-15.15Q785.1-15.4 784.35-15.48 783.6-15.55 782.9-15.55L782.9-15.55Q780.25-15.55 778.75-14.55 777.25-13.55 777.25-11.8L777.25-11.8Q777.25-10.25 778.35-9.4 779.45-8.55 781.3-8.55ZM803 0.65L803 0.65Q799.2 0.65 797.08-1.53 794.95-3.7 794.95-7.6L794.95-7.6Q794.95-11.15 796.5-14.05 798.05-16.95 800.68-18.68 803.3-20.4 806.45-20.4L806.45-20.4Q809.45-20.4 811.25-18.93 813.05-17.45 813.05-15L813.05-15Q813.05-13.05 811.85-11.4 810.65-9.75 808.65-8.78 806.65-7.8 804.2-7.8L804.2-7.8Q801.2-7.8 799.3-9.15L799.3-9.15Q799.35-6.85 800.88-5.45 802.4-4.05 804.8-4.05L804.8-4.05Q806.25-4.05 807.78-4.58 809.3-5.1 810.4-6L810.4-6Q811.1-6.6 811.7-6.6L811.7-6.6Q812.2-6.6 812.53-6.28 812.85-5.95 812.85-5.45L812.85-5.45Q812.85-4.35 810.95-2.55L810.95-2.55Q807.6 0.65 803 0.65ZM803.75-11.1L803.75-11.1Q805.55-11.1 806.75-11.85 807.95-12.6 807.95-13.75L807.95-13.75Q807.95-14.7 807.15-15.23 806.35-15.75 804.95-15.75L804.95-15.75Q803.1-15.75 801.73-14.78 800.35-13.8 799.75-12.05L799.75-12.05Q800.45-11.6 801.55-11.35 802.65-11.1 803.75-11.1ZM819.9 0.55L819.9 0.55Q819.1 0.55 818.62 0.28 818.15 0 818.3-0.65L818.3-0.65Q818.85-2.8 819.22-5.03 819.6-7.25 819.6-9.3L819.6-9.3Q819.6-11.95 819.27-13.18 818.95-14.4 818.4-14.88 817.85-15.35 817.05-15.6L817.05-15.6Q816.7-15.75 816.42-16 816.15-16.25 816.15-16.7L816.15-16.7Q816.15-17.4 816.7-18.25 817.25-19.1 818.25-19.73 819.25-20.35 820.55-20.35L820.55-20.35Q822.25-20.35 822.92-19.18 823.6-18 823.6-16.1L823.6-16.1Q824.5-18.1 825.82-19.28 827.15-20.45 829.15-20.45L829.15-20.45Q830.5-20.45 831.4-19.85 832.3-19.25 832.3-17.9L832.3-17.9Q832.3-16.55 831.42-15.38 830.55-14.2 829.65-14.2L829.65-14.2Q829.5-14.2 829.3-14.25 829.1-14.3 828.95-14.5L828.95-14.5Q828.3-15.3 827.35-15.3L827.35-15.3Q825.9-15.3 824.8-13.4 823.7-11.5 823.6-8.15L823.6-8.15Q823.65-6.9 823.67-5.6 823.7-4.3 823.7-3.7L823.7-3.7Q823.7-1.85 822.67-0.65 821.65 0.55 819.9 0.55ZM840.85 0.65L840.85 0.65Q837.8 0.65 836.47-1.38 835.15-3.4 835.15-6.6L835.15-6.6Q835.15-7.75 835.27-8.85 835.4-9.95 835.55-11.05L835.55-11.05Q835.7-12.15 835.85-13.2 836-14.25 836.1-15.2L836.1-15.2Q835.05-14.9 834-14.9L834-14.9Q832.9-14.9 832.9-15.8L832.9-15.8Q832.9-16.75 833.75-18.13 834.6-19.5 835.87-20.85 837.15-22.2 838.42-23.13 839.7-24.05 840.6-24.05L840.6-24.05Q841.7-24.05 841.7-22.15L841.7-22.15Q841.7-21.65 841.62-21.13 841.55-20.6 841.45-20.05L841.45-20.05Q842.4-20.25 843.37-20.4 844.35-20.55 845.25-20.55L845.25-20.55Q846.4-20.55 847.02-20.15 847.65-19.75 847.65-18.6L847.65-18.6Q847.65-17.4 847.07-16.2 846.5-15 845.8-15L845.8-15Q845.65-15 845.3-15.05 844.95-15.1 844.45-15.2L844.45-15.2Q843.8-15.35 842.8-15.5 841.8-15.65 840.4-15.65L840.4-15.65Q840.05-14.1 839.77-12.48 839.5-10.85 839.5-9.55L839.5-9.55Q839.5-6.65 840.95-5.6 842.4-4.55 845.15-4.55L845.15-4.55Q846-4.55 846.35-4.28 846.7-4 846.7-3.3L846.7-3.3Q846.7-1.65 845-0.5 843.3 0.65 840.85 0.65ZM854.49-24.85L854.49-24.85Q853.09-24.9 852.24-25.7 851.39-26.5 851.39-27.95L851.39-27.95Q851.44-29.5 852.44-30.48 853.44-31.45 854.99-31.4L854.99-31.4Q856.44-31.35 857.27-30.55 858.09-29.75 858.04-28.3L858.04-28.3Q857.99-26.8 857.04-25.83 856.09-24.85 854.49-24.85ZM854.54 0.5L854.54 0.5Q853.04 0.5 852.19-0.33 851.34-1.15 851.34-3.15L851.34-3.15Q851.34-4.3 851.57-5.4 851.79-6.5 852.09-7.55L852.09-7.55Q852.44-8.65 852.67-9.8 852.89-10.95 852.89-12.25L852.89-12.25Q852.89-13.15 852.64-13.98 852.39-14.8 851.54-15.2L851.54-15.2Q850.89-15.55 850.42-15.93 849.94-16.3 849.94-16.9L849.94-16.9Q849.94-17.6 850.59-18.4 851.24-19.2 852.32-19.78 853.39-20.35 854.54-20.35L854.54-20.35Q855.79-20.35 856.37-19.7 856.94-19.05 857.14-18.05 857.34-17.05 857.34-16L857.34-16Q857.34-14.4 857.09-12.88 856.84-11.35 856.59-10.05L856.59-10.05Q856.39-9.1 856.29-8.3 856.19-7.5 856.19-6.8L856.19-6.8Q856.19-5.55 856.79-4.93 857.39-4.3 858.49-3.75L858.49-3.75Q858.94-3.5 858.94-3L858.94-3Q858.94-2.6 858.54-1.75 858.14-0.9 857.17-0.2 856.19 0.5 854.54 0.5ZM865.84 13.8L865.84 13.8Q864.34 13.8 863.49 12.98 862.64 12.15 862.64 10L862.64 10Q862.64 8.55 862.97 6.35 863.29 4.15 863.74 1.7L863.74 1.7Q864.09-0.25 864.42-2.4 864.74-4.55 864.97-6.63 865.19-8.7 865.19-10.35L865.19-10.35Q865.19-12.25 864.77-13.65 864.34-15.05 863.04-15.45L863.04-15.45Q862.54-15.65 862.14-15.9 861.74-16.15 861.74-16.7L861.74-16.7Q861.74-17.4 862.29-18.25 862.84-19.1 863.87-19.73 864.89-20.35 866.19-20.35L866.19-20.35Q867.89-20.35 868.54-19.18 869.19-18 869.19-16.1L869.19-16.1Q869.19-15.55 869.14-14.98 869.09-14.4 868.99-13.8L868.99-13.8Q870.44-16.6 872.82-18.53 875.19-20.45 878.19-20.45L878.19-20.45Q881.19-20.45 882.92-18.43 884.64-16.4 884.64-12.95L884.64-12.95Q884.64-10.4 883.84-7.98 883.04-5.55 881.59-3.6 880.14-1.65 878.12-0.5 876.09 0.65 873.59 0.65L873.59 0.65Q871.79 0.65 870.44 0.03 869.09-0.6 868.09-1.6L868.09-1.6Q867.89-0.3 867.72 1.55 867.54 3.4 867.54 5L867.54 5Q867.54 6.85 867.97 7.9 868.39 8.95 869.64 9.5L869.64 9.5Q870.19 9.75 870.19 10.3L870.19 10.3Q870.19 10.7 869.79 11.55 869.39 12.4 868.47 13.1 867.54 13.8 865.84 13.8ZM874.74-4.75L874.74-4.75Q877.59-4.75 879.14-6.55 880.69-8.35 880.69-10.7L880.69-10.7Q880.69-12.75 879.59-13.88 878.49-15 876.64-15L876.64-15Q874.74-15 873.29-13.88 871.84-12.75 870.82-10.95 869.79-9.15 869.14-7.1L869.14-7.1Q871.64-4.75 874.74-4.75ZM895.09 0.65L895.09 0.65Q893.24 0.65 891.64 0.1 890.04-0.45 889.04-1.45 888.04-2.45 888.04-3.85L888.04-3.85Q888.04-4.6 888.41-5.28 888.79-5.95 889.64-5.95L889.64-5.95Q890.09-5.95 890.59-5.7L890.59-5.7Q891.49-5.2 892.89-4.78 894.29-4.35 895.84-4.35L895.84-4.35Q897.59-4.35 898.94-4.85 900.29-5.35 900.29-6.25L900.29-6.25Q900.29-6.95 899.26-7.25 898.24-7.55 895.84-7.9L895.84-7.9Q894.19-8.2 892.64-8.6 891.09-9 890.09-9.98 889.09-10.95 889.09-12.85L889.09-12.85Q889.09-14.7 890.11-16.43 891.14-18.15 893.19-19.3 895.24-20.45 898.19-20.45L898.19-20.45Q899.74-20.45 901.19-20.1 902.64-19.75 903.59-19.05 904.54-18.35 904.54-17.3L904.54-17.3Q904.54-16.4 903.91-15.65 903.29-14.9 902.46-14.43 901.64-13.95 901.09-13.95L901.09-13.95Q900.69-13.95 900.14-14.5L900.14-14.5Q899.29-15.2 898.26-15.48 897.24-15.75 896.24-15.75L896.24-15.75Q894.74-15.75 893.81-15.3 892.89-14.85 892.89-14.15L892.89-14.15Q892.89-13.5 893.66-13.1 894.44-12.7 895.59-12.53 896.74-12.35 897.79-12.2L897.79-12.2Q900.69-11.8 902.39-10.83 904.09-9.85 904.09-7.4L904.09-7.4Q904.09-5.5 903.01-3.63 901.94-1.75 899.91-0.55 897.89 0.65 895.09 0.65Z" opacity="1" transform="matrix(1,0,0,1,0,0)" fill="#404040" class="slogan-text-1" data-fill-palette-color="secondary" id="text-1"></path></svg></g></svg></g></svg></g></svg></g><g><svg viewBox="0 0 58.46971238941973 70.26097252121299" height="70.26097252121299" width="58.46971238941973"><g><svg xmlns="http://www.w3.org/2000/svg" xmlns:xlink="http://www.w3.org/1999/xlink" version="1.1" x="0" y="0" viewBox="13.05 5.598 73.9 88.803" enable-background="new 0 0 100 100" xml:space="preserve" height="70.26097252121299" width="58.46971238941973" class="icon-icon-0" data-fill-palette-color="accent" id="icon-0"><path fill-rule="evenodd" clip-rule="evenodd" d="M72.839 13.552A30 30 0 0 1 76.006 16.437C83.302 23.687 86.95 32.425 86.95 42.654 86.95 52.836 83.302 61.529 76.006 68.73A3.5 3.5 0 0 0 75.654 69.4C75.372 69.564 75.114 69.798 74.88 70.103L53.977 92.097C51.279 95.169 48.617 95.169 45.989 92.097L24.346 69.224 23.994 68.73C16.698 61.528 13.05 52.835 13.05 42.653 13.05 32.424 16.698 23.686 23.994 16.436A27 27 0 0 1 27.231 13.551C33.683 8.248 41.295 5.598 50.07 5.598 58.751 5.599 66.341 8.249 72.839 13.552M51.725 23.862V26.501C55.572 26.829 58.904 28.39 61.718 31.183 64.441 33.904 66 37.072 66.399 40.683H68.687C69.156 40.683 69.578 40.859 69.954 41.212 70.307 41.587 70.482 42.009 70.482 42.478 70.482 42.97 70.306 43.394 69.954 43.746 69.578 44.098 69.156 44.273 68.687 44.273H66.47C66.141 48.121 64.581 51.429 61.789 54.197L61.718 54.267C58.904 57.058 55.572 58.619 51.725 58.949V61.236C51.725 61.705 51.548 62.127 51.197 62.502A1.73 1.73 0 0 1 49.93 63.029C49.46 63.029 49.038 62.853 48.663 62.502 48.311 62.127 48.135 61.705 48.135 61.236V58.877C44.523 58.432 41.378 56.871 38.704 54.197 35.912 51.429 34.352 48.121 34.023 44.273H31.313C30.844 44.273 30.422 44.097 30.046 43.746A1.73 1.73 0 0 1 29.518 42.478C29.518 42.009 29.694 41.587 30.046 41.212 30.422 40.858 30.844 40.683 31.313 40.683H34.093C34.492 37.072 36.029 33.904 38.703 31.183 41.377 28.554 44.521 27.019 48.134 26.572V23.863C48.134 23.394 48.311 22.972 48.662 22.595 49.037 22.243 49.459 22.068 49.929 22.068 50.422 22.068 50.844 22.244 51.196 22.595 51.548 22.972 51.725 23.394 51.725 23.862M50.247 30.056H49.93C46.576 30.126 43.701 31.347 41.308 33.716L41.238 33.786C38.822 36.225 37.601 39.122 37.578 42.477V42.723C37.578 46.243 38.799 49.223 41.238 51.662 43.632 54.078 46.529 55.322 49.93 55.392H50.247C53.718 55.392 56.698 54.148 59.185 51.662 61.672 49.199 62.915 46.219 62.915 42.723V42.477C62.868 39.077 61.624 36.155 59.185 33.715S53.766 30.056 50.247 30.056M55.278 47.476C53.918 48.835 52.299 49.517 50.423 49.517 48.499 49.517 46.857 48.835 45.495 47.476 44.135 46.115 43.454 44.496 43.454 42.619V42.478C43.501 40.601 44.182 39.005 45.495 37.693 46.856 36.332 48.499 35.652 50.423 35.652 52.299 35.652 53.918 36.332 55.278 37.693 56.616 39.006 57.296 40.601 57.319 42.478V42.619C57.319 44.495 56.64 46.114 55.278 47.476M82.059 42.548C82.059 33.751 78.915 26.208 72.628 19.921S58.774 10.489 49.93 10.489C41.132 10.489 33.589 13.634 27.302 19.921S17.871 33.751 17.871 42.548C17.871 51.347 21.015 58.888 27.302 65.175 33.589 71.464 41.132 74.607 49.93 74.607 58.775 74.607 66.341 71.464 72.628 65.175 78.915 58.888 82.059 51.347 82.059 42.548" fill="#0db928" data-fill-palette-color="accent"></path></svg></g></svg></g></svg></g><defs></defs></svg><rect width="395.52" height="58.366409256357976" fill="none" stroke="none" visibility="hidden"></rect></g></svg></g></svg>